<?xml version="1.0" encoding="UTF-8" standalone="no"?>
<svg
   xmlns:dc="http://purl.org/dc/elements/1.1/"
   xmlns:cc="http://creativecommons.org/ns#"
   xmlns:rdf="http://www.w3.org/1999/02/22-rdf-syntax-ns#"
   xmlns:svg="http://www.w3.org/2000/svg"
   xmlns="http://www.w3.org/2000/svg"
   xmlns:sodipodi="http://sodipodi.sourceforge.net/DTD/sodipodi-0.dtd"
   xmlns:inkscape="http://www.inkscape.org/namespaces/inkscape"
   width="210mm"
   height="297mm"
   viewBox="0 0 210 297"
   version="1.1"
   id="svg8"
   inkscape:version="1.0.2 (1.0.2+r75+1)"
   sodipodi:docname="drawing.svg">
  <style
     id="style859">.start {  }
</style>
  <defs
     id="defs2">
    <rect
       x="88.253592"
       y="13.296528"
       width="74.724916"
       height="16.533583"
       id="rect16" />
  </defs>
  <sodipodi:namedview
     id="base"
     pagecolor="#ffffff"
     bordercolor="#666666"
     borderopacity="1.0"
     inkscape:pageopacity="0.0"
     inkscape:pageshadow="2"
     inkscape:zoom="1.4"
     inkscape:cx="328.68832"
     inkscape:cy="231.40739"
     inkscape:document-units="mm"
     inkscape:current-layer="layer1"
     inkscape:document-rotation="0"
     showgrid="false"
     inkscape:window-width="1920"
     inkscape:window-height="1016"
     inkscape:window-x="0"
     inkscape:window-y="1107"
     inkscape:window-maximized="1" />
  <metadata
     id="metadata5">
    <rdf:RDF>
      <cc:Work
         rdf:about="">
        <dc:format>image/svg+xml</dc:format>
        <dc:type
           rdf:resource="http://purl.org/dc/dcmitype/StillImage" />
        <dc:title></dc:title>
      </cc:Work>
    </rdf:RDF>
  </metadata>
  <g
     inkscape:label="Layer 1"
     inkscape:groupmode="layer"
     id="layer1">
    <text
       xml:space="preserve"
       style="font-style:normal;font-weight:normal;font-size:17.1464px;line-height:1.25;font-family:sans-serif;fill:#000000;fill-opacity:1;stroke:none;stroke-width:0.428659"
       x="14.71462"
       y="5.4743886"
       id="text12"
       transform="scale(0.93939377,1.0645163)"><tspan
         sodipodi:role="line"
         id="tspan10"
         x="14.71462"
         y="5.4743886"
         style="font-style:normal;font-variant:normal;font-weight:normal;font-stretch:normal;font-size:27.4341px;font-family:'Rock Salt';-inkscape-font-specification:'Rock Salt';stroke-width:0.428659" /><tspan
         sodipodi:role="line"
         x="14.71462"
         y="39.767014"
         style="font-style:normal;font-variant:normal;font-weight:normal;font-stretch:normal;font-size:27.4341px;font-family:'Rock Salt';-inkscape-font-specification:'Rock Salt';stroke-width:0.428659"
         id="tspan30">Hi, I'm Nicol</tspan></text>
    <text
       xml:space="preserve"
       id="text14"
       style="font-style:normal;font-weight:normal;font-size:10.5833px;line-height:1.25;font-family:sans-serif;white-space:pre;shape-inside:url(#rect16);fill:#000000;fill-opacity:1;stroke:none;" />
    <text
       xml:space="preserve"
       style="font-style:normal;font-weight:normal;font-size:10.5833px;line-height:1.25;font-family:sans-serif;fill:#000000;fill-opacity:1;stroke:none;stroke-width:0.264583"
       x="22.957806"
       y="9.707345"
       id="text22"><tspan
         sodipodi:role="line"
         id="tspan20"
         x="22.957806"
         y="9.707345"
         style="stroke-width:0.264583"></tspan><tspan
         sodipodi:role="line"
         x="22.957806"
         y="22.93647"
         style="stroke-width:0.264583"
         id="tspan24" /><tspan
         sodipodi:role="line"
         x="22.957806"
         y="36.165596"
         style="stroke-width:0.264583"
         id="tspan26" /></text>
    <path
       style="transition:7s linear;stroke-dashoffset:1000;stroke-dasharray:1000, 5000;stroke-miterlimit:4;stroke-linejoin:round;stroke-linecap:butt;stroke-width:2.265;stroke:#fa0000;fill:none;"
       d="m 19.08007,14.42104 -0.159987,8.062507 -1.103711,9.380335 c -0.418343,3.541873 -1.634596,9.461318 -1.250619,10.912125 0.417707,3.892067 6.522372,3.071042 2.781415,6.928104 -3.860419,-7.555495 -1.468286,-2.104991 -11.3110889,-11.412106 3.0814629,-1.076796 5.2814259,-2.244932 8.8177599,-2.722906 3.550487,-0.511627 3.465158,-0.646072 11.21871,-1.919402 2.742474,-0.942707 5.180057,-1.320543 8.160002,-1.881518 L 31.159098,12.72945 c -0.105144,3.181799 -0.310248,6.296227 -0.533289,9.2657 -0.428124,3.711722 -1.059717,6.330717 -1.027704,11.135165 -0.835418,2.966096 -0.486508,6.75825 -0.622453,10.212221 0.77619,6.535796 1.785011,4.877166 3.004145,6.740512 l 8.118758,-25.196082 c -0.02217,1.350263 0.05209,2.603385 0.04764,4.054333 -0.05928,1.584895 -0.147928,5.774498 -0.293546,8.316267 0.776404,0.986985 1.934293,1.00918 1.780907,0.954762 l 4.205307,1.114435 c 0.126536,2.742271 0.337798,2.717868 -1.000652,5.945005 -0.18671,1.28803 -1.304999,2.602546 -2.283388,4.433641 8.62268,-12.35005 15.701616,-21.496643 23.303275,-34.427256 l -0.03727,6.444058 -0.330322,4.693444 c -0.25328,3.580285 -0.81912,6.131153 -1.22868,9.196729 -0.69977,2.982475 -0.367328,5.576776 -0.01752,7.882625 1.027746,0.437858 2.062316,1.416779 2.913498,0.711417 2.864993,-9.19131 4.650894,-18.38262 8.695456,-27.57393 v 0 c -1.632641,2.025963 -1.547489,3.389046 -1.777072,4.873582 l -0.99948,5.476864 c 2.855629,0.154871 5.077785,-3.369704 7.933414,-4.859325 l -1.45821,8.334041 c -1.442283,3.439107 -0.317508,8.716433 -0.613365,11.514237 -0.296968,-3.780264 0.881147,-9.48945 0.964004,-14.27397 l 2.342553,-3.562279 c 0.497242,3.250997 0.882565,6.67082 1.956469,9.051949 0.842536,1.928025 2.149547,2.307876 3.854127,1.738181 2.104437,-1.036765 3.50133,-2.08305 4.713499,-3.13182 l 3.609141,-6.569807 0.724998,-2.477092 c 1.747606,3.163692 0.493811,6.199756 0.518827,9.290198 -1.056999,2.686498 -0.938674,5.774716 -0.11664,8.008728 1.178512,-0.688181 2.357023,-1.358228 3.535535,-0.716694 l 14.20942,8.774984 c 0.54286,-1.690593 -0.4611,-3.64247 0.29562,-4.564959 0.4247,-4.053351 0.98601,-7.167234 1.20233,-9.785888 0.98887,-5.538728 0.72144,-6.881982 0.94048,-9.00235 l -0.86742,-8.779283 c 1.35297,3.892513 1.81312,7.443739 4.06113,11.677527 0.50774,2.275246 2.21106,4.993205 3.18375,7.827936 1.39348,2.190245 3.03566,3.95362 4.83263,5.451277 2.77485,-1.15156 2.59568,-2.675498 3.31743,-3.820099 0.0836,-3.45296 0.29721,-6.801452 0.52491,-8.867956 0.23195,-2.373272 0.0958,-4.464534 -0.0512,-7.487356 0.13342,-3.292195 0.2658,-4.20045 0.19499,-6.124218 -1.44782,-3.149789 -1.19479,-2.236427 -1.54292,-3.402168 2.5119,3.409432 4.19443,6.168425 8.4838,10.81261 l -0.0103,6.644445 c -0.28219,1.992302 -1.20432,3.084536 -0.50332,6.459688 -0.008,1.063761 0.47391,2.07158 1.13841,3.058576 0.71632,0.223608 1.52241,0.64174 1.59821,-0.52246 l 5.61782,-16.493917 13.87124,1.577076 c -1.15833,1.364485 -1.55935,2.510636 -3.36061,4.468468 -0.30503,-1.086807 0.38369,-2.660071 -2.02322,-2.717954 -1.86394,-0.09976 -3.72789,0.457561 -5.59183,1.667645 -1.66058,0.481155 -2.81588,2.010021 -4.14404,3.180457 l -0.85832,5.223135 c 0.66664,1.925159 1.93431,2.743263 3.19423,3.575642 1.89977,1.148926 3.79953,1.051378 5.6993,1.12875 2.50136,0.218248 4.41281,-0.291925 6.40386,-0.703816 l 2.8828,-1.441696 c -0.72393,-2.521882 0.81392,-3.626967 1.70676,-5.136097 0.5106,-2.477123 1.84005,-3.902778 3.53903,-4.853926 l 3.39028,-2.216433 c 1.26673,-1.826505 2.28719,-2.181876 3.03009,-0.879213 1.1252,0.716371 3.28286,0.681251 2.72322,2.623968 0.32454,2.404713 -0.22258,4.381615 -1.2471,6.124207 0.074,1.659818 -1.16077,3.058963 -3.11552,4.693574 -1.01955,0.85744 -2.10036,1.706861 -4.30611,2.409001 -2.11844,0.23934 -4.27232,0.458882 -4.6338,-1.753343 l 0.16081,-6.177711 5.13068,-5.769094 c 1.18662,-2.881143 4.37557,-1.454 6.57689,-2.151891 l 7.78226,-1.049723 c -0.331,1.431711 -0.64936,2.861693 -0.24139,4.192465 -1.22356,2.697191 -0.61825,4.878012 -0.66056,7.096278 -0.29744,1.422701 -0.24058,2.471692 0.1735,4.003437 0.58393,2.039327 2.16115,0.641651 3.29255,0.786617 4.71372,-0.721542 7.82311,-3.040181 7.27082,-3.888515"
       id="path34"
       sodipodi:nodetypes="ccccccccccccccccccccccccccccccccccccccccccccccccccccccccccccccccccccccccccccccccccccccccccc"
       class="start  stroke-dasharray "
       onload="setTimeout(()=&gt; this.style.strokeDashoffset = &quot;0&quot;, 200)" />
  </g>
</svg>
