<?xml version="1.0" standalone="no"?>
  <svg version="1.1"
      baseProfile="full"
     width="889px"
      height="722px"
     
      xmlns="http://www.w3.org/2000/svg"
      >
      <g xmlns="http://www.w3.org/2000/svg" xmlns:xlink="http://www.w3.org/1999/xlink">
      <g transform="rotate(0 444.50000106811524 360.8000003051758)"><svg id="1623870172230" opacity="1" fill="rgb(10, 20, 30)" viewBox="0 -46.79999923706055 113.26000213623047 53.86000061035156" width="266.26000213623047" preserveAspectRatio="none" height="152.86000061035156" x="311.37" y="284.37"><path id="textPath" d="M31.10-4.68L31.10-13.61C31.10-15.26 31.10-17.42 32.11-18.43C32.62-18.94 33.41-19.22 34.63-19.22L34.63-22.82C33.26-22.82 32.11-22.54 31.10-22.10L31.10-37.01L31.10-37.58L31.10-38.59C31.10-40.03 31.25-41.62 32.04-42.48C32.54-42.98 33.41-43.20 34.56-43.20L34.56-46.80C32.40-46.80 30.74-46.22 29.52-45.00C29.02-44.50 28.66-43.99 28.44-43.49C28.15-43.99 27.79-44.50 27.36-45.00C26.14-46.22 24.41-46.80 22.25-46.80L22.25-43.20C23.40-43.20 24.26-42.98 24.77-42.48C25.34-41.83 25.63-40.90 25.70-39.82L25.70-11.95L8.93-40.46C9.07-41.26 9.36-41.98 9.79-42.48C10.30-42.98 11.16-43.20 12.31-43.20L12.31-46.80C10.15-46.80 8.50-46.22 7.27-45.00C6.77-44.50 6.41-43.99 6.19-43.49C5.90-43.99 5.54-44.50 5.04-45.00C3.89-46.22 2.16-46.80 0-46.80L0-43.20C1.15-43.20 2.02-42.98 2.52-42.48C3.10-41.83 3.38-40.90 3.46-39.82L3.46-22.10C2.45-22.61 1.30-22.82 0-22.82L0-19.22C1.22-19.22 2.02-18.94 2.52-18.43C3.10-17.86 3.38-16.85 3.46-15.77L3.46-3.46C3.38-2.38 3.10-1.37 2.52-0.79C2.02-0.29 1.15 0 0 0L0 3.60C2.16 3.60 3.89 2.95 5.04 1.73C5.54 1.30 5.90 0.79 6.19 0.22C6.41 0.79 6.77 1.30 7.27 1.73C8.50 2.95 10.15 3.60 12.31 3.60L12.31 0C11.16 0 10.30-0.29 9.79-0.79C9.14-1.44 8.93-2.52 8.86-3.60L8.86-29.95L25.34-1.80C25.20-1.44 25.06-1.08 24.77-0.79C24.26-0.29 23.40 0 22.25 0L22.25 3.60C24.41 3.60 26.14 2.95 27.36 1.73C27.79 1.30 28.15 0.79 28.44 0.22C28.66 0.79 29.02 1.30 29.52 1.73C30.74 2.95 32.40 3.60 34.56 3.60L34.56 0C33.41 0 32.54-0.29 32.04-0.79C31.25-1.58 31.10-3.17 31.10-4.68ZM81.36 0.79C81.94 0.50 82.44 0.14 82.94-0.29C84.17-1.51 84.74-3.24 84.74-5.40L81.14-5.40C81.14-4.18 80.93-3.38 80.42-2.88C79.42-1.87 77.26-1.87 75.60-1.87L67.68-1.87C67.10-1.87 66.24-1.94 65.81-2.38C65.09-3.10 65.09-5.18 65.09-6.62L65.09-13.61C65.09-15.26 65.09-17.42 66.10-18.43C66.60-18.94 67.39-19.22 68.62-19.22L68.62-22.82C67.25-22.82 66.10-22.54 65.09-22.10L65.09-37.01L65.09-37.58L65.09-38.59C65.09-40.03 65.23-41.62 66.02-42.48C66.53-42.98 67.39-43.20 68.54-43.20L68.54-46.80C66.38-46.80 64.73-46.22 63.50-45.00C63.07-44.57 62.71-43.99 62.42-43.49C62.14-43.99 61.78-44.57 61.34-45.00C60.12-46.22 58.39-46.80 56.23-46.80L56.23-43.20C57.38-43.20 58.25-42.98 58.75-42.48C59.33-41.83 59.62-40.90 59.69-39.82L59.69-22.10C58.68-22.61 57.53-22.82 56.23-22.82L56.23-19.22C57.46-19.22 58.25-18.94 58.75-18.43C59.33-17.86 59.62-16.85 59.69-15.77L59.69-3.46C59.62-2.38 59.33-1.37 58.75-0.79C58.25-0.29 57.38 0 56.23 0L56.23 3.60C58.39 3.60 60.12 2.95 61.34 1.73C61.49 1.58 61.63 1.37 61.78 1.22L61.99 1.44C63.36 2.81 65.30 3.53 67.68 3.53L75.60 3.53C77.26 3.53 79.42 3.53 80.42 4.46C80.93 5.04 81.14 5.83 81.14 7.06L84.74 7.06C84.74 4.90 84.17 3.17 82.94 1.94C82.44 1.44 81.94 1.08 81.36 0.79ZM109.87 0.79C110.45 0.50 110.95 0.14 111.46-0.29C112.68-1.51 113.26-3.24 113.26-5.40L109.66-5.40C109.66-4.18 109.44-3.38 108.94-2.88C107.93-1.87 105.77-1.87 104.11-1.87L96.19-1.87C95.62-1.87 94.75-1.94 94.32-2.38C93.60-3.10 93.60-5.18 93.60-6.62L93.60-13.61C93.60-15.26 93.60-17.42 94.61-18.43C95.11-18.94 95.90-19.22 97.13-19.22L97.13-22.82C95.76-22.82 94.61-22.54 93.60-22.10L93.60-37.01L93.60-37.58L93.60-38.59C93.60-40.03 93.74-41.62 94.54-42.48C95.04-42.98 95.90-43.20 97.06-43.20L97.06-46.80C94.90-46.80 93.24-46.22 92.02-45.00C91.58-44.57 91.22-43.99 90.94-43.49C90.65-43.99 90.29-44.57 89.86-45.00C88.63-46.22 86.90-46.80 84.74-46.80L84.74-43.20C85.90-43.20 86.76-42.98 87.26-42.48C87.84-41.83 88.13-40.90 88.20-39.82L88.20-22.10C87.19-22.61 86.04-22.82 84.74-22.82L84.74-19.22C85.97-19.22 86.76-18.94 87.26-18.43C87.84-17.86 88.13-16.85 88.20-15.77L88.20-3.46C88.13-2.38 87.84-1.37 87.26-0.79C86.76-0.29 85.90 0 84.74 0L84.74 3.60C86.90 3.60 88.63 2.95 89.86 1.73C90.00 1.58 90.14 1.37 90.29 1.22L90.50 1.44C91.87 2.81 93.82 3.53 96.19 3.53L104.11 3.53C105.77 3.53 107.93 3.53 108.94 4.46C109.44 5.04 109.66 5.83 109.66 7.06L113.26 7.06C113.26 4.90 112.68 3.17 111.46 1.94C110.95 1.44 110.45 1.08 109.87 0.79Z" style="cursor: move;"></path></svg></g>
      </g>
  </svg>