<?xml version="1.0" standalone="no"?>
  <svg version="1.1"
      baseProfile="full"
     width="889px"
      height="722px"
     
      xmlns="http://www.w3.org/2000/svg"
      >
      <g xmlns="http://www.w3.org/2000/svg" xmlns:xlink="http://www.w3.org/1999/xlink">
      <g transform="rotate(0 381.46686060941556 357.3672419433113)"><svg id="1623870172230" opacity="1" fill="rgb(10, 20, 30)" viewBox="1.440000057220459 -57.599998474121094 206.58432006835938 57.599998474121094" width="485.6537212188311" preserveAspectRatio="none" height="163.4744838866226" x="138.64" y="275.63"><path id="textPath" d="M2.45 0L20.52 0C21.02 0 21.53-0.43 21.53-1.01C21.53-1.58 21.02-2.02 20.52-2.02L18.22-2.02C15.05-2.02 12.46-4.61 12.46-7.78L12.46-50.54L34.56 0L63.58 0C64.15 0 64.58-0.43 64.58-1.01C64.58-1.58 64.15-2.02 63.58-2.02L61.34-2.02C58.18-2.02 55.66-4.46 55.58-7.56L55.58-50.40C55.87-53.28 58.32-55.51 61.34-55.51L63.58-55.51C64.15-55.51 64.58-56.02 64.58-56.52C64.58-57.10 64.15-57.60 63.58-57.60L45.50-57.60C44.93-57.60 44.50-57.10 44.50-56.52C44.50-56.02 44.93-55.51 45.50-55.51L47.74-55.51C50.90-55.51 53.57-52.92 53.57-49.75L53.50-7.78L29.59-57.60L2.45-57.60C1.87-57.60 1.44-57.10 1.44-56.52C1.44-56.02 1.87-55.51 2.45-55.51L4.68-55.51C7.85-55.51 10.44-52.92 10.44-49.75L10.44-7.78C10.44-4.61 7.85-2.02 4.68-2.02L2.45-2.02C1.87-2.02 1.44-1.58 1.44-1.01C1.44-0.43 1.87 0 2.45 0ZM26.21-24.55L25.70-25.70C25.85-26.35 25.92-27.00 25.78-27.72C25.70-28.22 25.63-28.94 24.84-29.09C24.62-29.09 24.77-29.23 24.77-29.45C24.84-30.02 24.34-30.17 23.90-30.31C23.83-30.38 23.76-30.38 23.62-30.38L23.26-31.25C23.76-31.75 24.26-32.26 24.70-32.83C26.14-34.63 25.92-36.65 25.49-38.81C24.84-38.59 24.55-38.30 24.26-37.87C23.62-36.94 23.11-35.93 22.82-34.85C22.68-34.34 22.54-33.84 22.32-33.41L21.89-34.34C22.10-35.57 21.60-36.72 20.59-37.44L20.09-38.52L20.16-38.59L21.10-39.02C21.82-39.38 22.32-39.96 22.61-40.68C23.04-41.69 23.26-42.84 23.04-43.99C22.82-45.00 22.32-45.94 21.24-46.22C19.94-46.58 18.72-46.37 17.64-45.65C17.42-45.50 17.35-45.29 17.21-45.07L16.92-45.72L17.93-46.51C18.29-46.73 18.29-47.09 18.36-47.59C18.36-48.02 18.14-48.17 17.64-47.81C17.42-47.66 17.50-47.74 17.35-47.88C16.92-48.67 16.92-48.67 16.42-48.02C16.27-47.88 16.20-47.74 16.13-47.66L15.84-48.31C16.06-48.74 16.34-49.10 16.63-49.46C17.28-50.47 17.50-51.55 17.14-52.70C16.70-54.22 14.98-55.37 13.46-54.86C13.32-54.79 13.18-54.72 13.03-54.72L12.74-55.44L16.06-55.44C16.13-55.30 16.34-55.30 16.56-55.30C16.70-55.37 16.78-55.37 16.85-55.44L17.93-55.44C17.35-55.15 16.99-54.58 17.21-54.14C17.64-53.42 17.78-52.63 18.14-51.91C18.29-51.98 18.36-52.06 18.50-52.06C18.65-52.06 18.50-52.92 18.86-52.20C19.01-51.91 19.51-51.98 19.66-52.34C19.87-53.21 19.94-54.14 19.58-55.01C19.51-55.15 19.44-55.30 19.30-55.44L20.02-55.44C20.02-55.37 20.09-55.30 20.16-55.22C20.59-54.94 20.66-54.43 20.59-53.86C21.67-54.58 22.68-54.86 23.69-54.14C24.05-53.86 24.26-54.14 24.41-54.43C24.55-54.72 24.70-55.08 24.77-55.44L25.42-55.44L25.42-55.30C25.20-54.79 25.06-54.36 24.70-54.00C24.34-53.57 24.34-53.06 24.55-52.56C24.62-52.34 24.91-52.34 24.55-52.20C24.26-52.13 24.26-51.91 24.19-51.70C23.90-50.69 23.26-50.04 22.32-49.61C22.46-49.25 22.75-48.96 22.82-48.60C23.26-47.38 24.34-46.94 25.27-46.37C25.63-46.22 26.06-46.22 26.42-46.37C26.86-46.51 27.14-46.80 27.00-47.30C26.71-48.02 27.07-48.17 27.72-48.24C28.22-48.24 28.80-48.53 28.94-48.96C29.16-49.54 29.59-49.97 29.81-50.47C29.95-50.76 30.10-50.98 30.24-51.19L30.60-50.54C30.38-50.18 30.17-49.90 29.95-49.46C29.66-48.96 29.88-48.17 29.30-47.81C28.80-47.45 28.15-47.81 27.58-47.45C27.65-46.44 27.58-46.30 26.64-45.94C26.35-45.79 26.06-45.65 25.70-45.65C25.34-45.65 25.13-45.50 25.13-45.07C25.06-44.64 24.91-44.21 24.48-43.99C23.90-43.78 23.90-43.34 23.83-42.84C23.62-40.82 22.97-39.17 20.95-38.38C20.88-38.30 20.88-38.23 20.81-38.09C21.53-37.58 22.03-36.72 22.68-36.00C22.90-36.50 23.18-36.86 23.33-37.30C23.83-38.30 24.62-38.95 25.56-39.53C26.06-39.89 26.28-39.74 26.28-39.10C26.14-37.44 26.93-35.86 26.21-34.13C26.78-34.13 27.22-34.13 27.58-34.06C27.94-34.06 28.66-34.20 28.51-33.55C28.44-33.12 27.86-33.48 27.65-33.55C26.57-33.70 25.85-33.41 25.27-32.54C25.06-32.18 24.70-31.82 24.41-31.46C24.12-31.18 24.05-30.96 24.48-30.74C24.84-30.60 25.20-30.31 25.34-30.02C25.63-29.52 25.99-29.45 26.42-29.59C27.00-29.74 27.50-29.95 28.01-30.17C28.15-30.24 28.30-30.24 28.37-30.10C28.44-29.88 28.37-29.81 28.15-29.74C27.72-29.52 27.29-29.23 26.78-29.16C26.28-29.09 26.14-28.80 26.28-28.30C26.42-27.86 26.50-27.36 26.42-26.86C26.35-26.57 26.28-26.28 26.71-26.14C27.00-26.71 27.58-26.93 28.30-26.86C28.58-26.78 28.66-26.64 28.66-26.35C28.58-26.06 28.44-25.92 28.15-26.06C27.86-26.21 27.58-26.21 27.29-25.92C26.93-25.49 26.50-25.06 26.21-24.55ZM21.17-50.11C22.25-50.11 23.69-51.48 23.69-52.63C23.69-53.35 23.26-53.78 22.68-53.86C21.38-54.07 20.23-53.06 20.30-51.62C20.52-51.34 20.59-50.83 20.66-50.40C20.74-50.18 20.95-50.11 21.17-50.11ZM15.34-49.46L15.19-49.75C15.19-49.82 15.26-49.90 15.26-49.90C15.41-50.26 15.62-50.62 15.77-50.98C16.06-52.13 15.77-52.78 14.54-53.50C15.77-53.42 16.20-53.06 16.34-52.27C16.56-51.34 16.13-50.47 15.77-49.61C15.62-49.46 15.55-49.39 15.34-49.46ZM18.29-48.60C19.15-48.31 19.94-48.96 19.94-50.04C19.94-50.62 19.87-51.12 19.30-51.34C18.86-51.48 18.22-51.34 18.00-50.90C17.86-50.62 17.71-50.33 17.64-50.04C17.35-49.46 17.64-48.82 18.29-48.60ZM19.66-46.94C20.16-47.09 20.66-47.02 21.17-46.94C21.96-46.73 22.32-47.02 22.32-47.95C22.32-48.60 21.74-49.32 21.17-49.39C20.52-49.46 20.30-48.89 20.16-48.46C20.02-48.10 20.02-47.95 19.58-48.10C19.08-48.17 18.94-47.74 18.94-47.30C19.01-46.80 19.30-46.87 19.66-46.94ZM39.38-32.26C36.36-32.11 33.91-34.78 34.06-37.37C34.06-38.16 33.98-38.95 34.34-39.67C34.63-40.18 34.56-40.61 34.06-40.90C32.83-41.62 32.11-42.70 31.68-43.99C31.10-45.36 31.10-46.87 31.68-48.24L32.18-47.30C32.18-47.23 32.18-47.16 32.11-47.09C31.61-44.93 32.76-42.26 34.70-41.18C34.99-41.04 35.21-40.82 35.42-40.61L35.50-40.32C34.92-39.38 34.78-38.74 34.70-37.73C34.49-35.06 36.65-32.90 39.10-32.90ZM23.83-44.28C24.62-44.86 24.91-45.58 24.48-46.01C24.12-46.37 23.76-46.73 23.33-47.02C22.97-47.30 22.75-47.02 22.54-46.80C22.25-46.58 22.46-46.44 22.61-46.22C23.11-45.65 23.47-45.00 23.83-44.28ZM26.64-42.62C26.28-42.70 25.92-42.91 25.92-43.34C25.92-43.78 26.35-43.92 26.78-43.99C27.14-43.99 27.36-43.78 27.36-43.42C27.43-42.98 27.07-42.55 26.64-42.62ZM35.93-2.16C36.07-2.30 36.22-2.45 36.29-2.66C36.50-2.95 36.50-3.17 36.22-3.38C35.71-3.74 35.28-4.25 35.42-4.97C35.50-5.26 35.28-5.33 35.06-5.47C34.85-5.54 34.63-5.62 34.42-5.76L33.84-6.98C33.91-6.91 34.06-6.84 34.13-6.70C35.42-5.54 36.79-5.69 38.16-6.19C39.53-6.70 40.25-7.63 40.39-9.14C39.24-9.07 38.74-9.79 38.59-10.94C38.09-10.30 38.09-10.30 38.09-9.72C38.02-7.85 36.94-7.13 35.21-7.85C34.70-8.06 34.49-8.42 34.34-8.86L34.13-9.65C33.91-10.01 33.55-10.15 33.19-10.08C32.90-10.01 32.83-9.72 32.83-9.43L32.83-9.36L31.03-13.39C31.10-14.47 31.68-15.41 32.90-16.27C33.19-16.49 33.55-16.70 33.91-16.78C34.56-16.92 34.63-17.35 34.56-17.93L34.13-20.81C33.84-23.40 32.83-24.48 30.31-24.91C29.66-25.06 29.45-25.42 29.81-25.99C30.17-26.78 30.82-27.14 31.82-27.00C33.48-26.71 35.06-26.42 36.79-26.42C36.65-27.29 36.79-28.08 37.01-28.80C36.79-29.09 36.58-29.09 36.36-29.16C33.70-29.95 32.18-31.82 31.32-34.34C30.89-35.57 31.03-36.86 31.61-38.09C31.82-38.74 31.75-39.10 31.25-39.53C30.53-40.10 29.88-40.82 29.23-41.54C28.73-42.12 28.66-42.77 28.94-43.49C29.30-43.34 29.38-43.06 29.45-42.84C30.02-41.69 30.82-40.68 31.75-39.82C32.90-38.81 32.62-38.95 32.11-37.73C31.90-37.37 31.68-37.01 31.61-36.58C31.39-32.54 35.21-28.37 40.25-29.81C40.32-29.81 40.39-29.81 40.54-29.88L42.41-25.99C42.34-25.85 42.34-25.70 42.34-25.56C42.41-25.27 42.48-25.06 42.41-24.70C42.34-23.83 43.34-22.39 44.14-22.10L44.28-22.10L46.66-17.14C46.51-17.14 46.44-17.14 46.30-17.06C45.94-16.92 45.72-16.63 45.94-16.20C46.01-16.13 46.08-15.98 46.08-15.91C46.15-15.70 46.30-15.48 46.01-15.41C45.79-15.34 45.65-15.48 45.58-15.70C45.22-16.27 45.07-16.85 45.50-17.42C45.65-17.57 45.79-17.71 45.65-17.93C45.50-18.14 45.29-18.00 45.07-17.93C44.57-17.71 44.06-17.64 43.49-17.57C42.77-17.50 42.12-17.64 41.40-17.78C40.68-17.93 40.32-17.50 40.54-16.78C40.68-16.49 41.04-16.34 40.97-15.98C40.68-15.70 40.32-15.77 40.03-15.84C39.38-16.06 38.74-16.20 38.09-16.34C36.29-16.70 34.49-16.63 32.98-15.41C32.40-14.98 31.90-14.47 31.82-13.68C31.61-11.16 33.12-10.22 35.57-10.22C36.86-10.30 38.02-10.94 38.95-12.02C39.17-12.24 39.38-12.53 39.82-12.46C39.74-12.31 39.74-12.17 39.67-12.17C38.81-11.52 39.46-10.73 39.46-10.08C39.46-9.79 39.89-9.58 40.25-9.65C40.90-9.86 41.69-10.08 41.98-10.73C42.34-11.52 42.98-11.45 43.70-11.81C43.56-11.30 43.42-11.02 43.34-10.66C43.34-10.37 43.42-10.01 43.63-9.79C44.14-9.43 45.14-9.29 45.65-9.65C46.58-10.37 47.30-11.16 47.95-12.17C45.86-13.39 43.78-14.26 41.40-14.11C39.74-13.97 38.16-13.46 36.65-12.67C36.29-12.53 36.00-12.17 35.57-12.38C35.50-12.67 35.64-12.82 35.86-12.89C36.65-13.32 37.51-13.75 38.38-14.11C41.04-15.05 43.70-14.76 46.30-13.68C46.94-13.39 47.81-13.32 48.31-12.60C48.38-12.38 48.60-12.38 48.82-12.46L48.89-12.46L49.10-11.95C49.03-11.95 48.96-11.88 48.89-11.88C48.53-11.81 48.24-11.59 48.02-11.38C47.45-10.73 47.02-10.15 46.66-9.43C45.94-8.14 46.15-6.70 47.30-5.54C47.52-6.12 47.38-6.70 47.59-7.13C48.24-8.28 49.03-9.22 50.40-9.36L50.69-8.78C49.61-8.64 48.53-7.99 48.10-6.70C47.95-6.19 47.88-5.69 48.53-5.33C48.67-5.76 48.74-6.12 48.96-6.55C49.18-6.98 49.54-7.20 50.04-7.20C51.34-7.20 51.91-6.55 51.70-5.26C51.55-3.96 50.76-2.95 49.82-2.16L48.67-2.16L48.96-2.45C48.31-2.16 47.66-2.30 46.94-2.45L46.94-2.16L46.51-2.16C46.51-2.52 46.44-2.81 46.30-3.17C46.22-3.46 46.15-3.74 46.51-3.96C46.94-3.67 47.16-3.10 47.81-3.02C48.17-3.02 48.53-3.10 48.67-3.46C48.82-3.82 48.74-4.18 48.31-4.32C47.30-4.68 46.58-5.33 45.94-6.34C45.43-4.75 44.78-3.38 43.92-2.16L43.20-2.16C43.56-2.66 43.85-3.31 44.14-3.89C44.64-4.75 45.14-5.62 45.14-6.70C45.14-6.98 45.29-7.20 45.43-7.34C46.01-7.85 45.94-8.50 45.79-9.22C45.07-9.00 44.42-8.93 43.78-9.14C43.56-9.22 43.34-9.07 43.27-8.86C43.20-8.57 43.27-8.35 43.49-8.28C43.63-8.21 43.85-8.21 43.99-8.14C44.21-8.14 44.35-7.99 44.28-7.78C44.28-7.56 44.14-7.42 43.92-7.42C43.63-7.34 43.27-7.34 42.91-7.27C42.19-7.13 41.47-7.06 41.11-6.34C40.68-5.69 40.82-5.26 41.47-4.90C41.69-4.82 42.05-4.97 42.12-4.54C41.69-4.10 41.04-4.03 40.39-3.82C39.82-3.67 39.10-3.96 38.74-3.24C38.66-3.10 38.45-3.10 38.30-3.17C37.94-3.38 37.73-3.10 37.51-2.95C37.22-2.66 36.94-2.45 36.72-2.16ZM38.38-34.34C38.02-34.56 37.73-34.85 37.58-35.21C37.44-35.42 37.30-35.64 37.58-35.78C37.58-35.86 37.66-35.86 37.66-35.86ZM31.68-27.79C31.32-27.79 31.03-27.79 30.74-28.15C30.53-28.58 30.89-28.73 31.03-28.94C31.32-29.30 30.96-29.52 30.82-29.81C30.74-30.02 30.67-30.24 30.89-30.46C31.10-30.60 31.32-30.53 31.54-30.38C32.33-30.02 32.69-29.30 32.90-28.58C33.05-28.22 32.33-27.79 31.68-27.79ZM40.68-23.33C41.11-23.26 41.62-23.18 41.83-23.62C42.05-24.05 41.76-24.41 41.47-24.77C41.47-24.84 41.33-24.91 41.26-24.98C39.53-26.21 39.24-26.86 39.74-28.87C37.66-29.16 37.37-28.44 37.37-27.07C37.44-25.49 39.17-23.62 40.68-23.33ZM37.87-16.99C39.53-16.56 39.53-16.56 40.03-18.14C40.18-18.36 40.18-18.58 39.96-18.72C39.10-19.37 38.74-20.38 38.30-21.24C38.16-21.60 38.09-21.96 38.16-22.32C38.59-23.76 37.80-24.62 36.79-25.34C36.29-25.78 35.64-26.06 34.78-25.85C35.35-24.77 36.00-23.83 36.07-22.68C35.42-23.62 35.14-24.62 34.42-25.42C33.77-26.06 31.82-26.57 31.03-26.28C30.82-26.21 30.60-26.06 30.60-25.78C30.60-25.49 30.89-25.49 31.10-25.42C33.26-24.77 34.42-23.33 34.70-21.17L35.14-18.00C35.21-17.42 35.50-17.14 36.14-17.21C36.72-17.21 37.30-17.14 37.87-16.99ZM42.91-18.14C45.00-18.14 45.43-18.72 44.93-20.59C44.78-21.17 44.57-21.31 43.99-21.02C43.92-21.02 43.85-20.95 43.85-20.95C42.12-20.09 41.04-20.45 40.46-22.18C40.25-22.82 39.74-23.18 39.31-23.11C38.95-23.11 38.66-22.46 38.74-21.82C38.95-20.09 41.11-18.22 42.91-18.14ZM27.14-22.46L27.07-22.54L27.58-22.54C27.43-22.46 27.29-22.46 27.14-22.46ZM28.30-19.73L28.01-20.38L28.08-20.38C28.37-20.38 28.58-20.23 28.58-20.02C28.58-19.80 28.44-19.73 28.30-19.73ZM40.46-7.06C40.90-7.06 41.04-7.34 41.33-7.49C41.62-7.63 41.98-7.78 42.34-7.85C42.48-7.92 42.62-8.06 42.55-8.21C42.41-8.71 42.62-9.22 42.77-9.65C42.77-9.94 42.77-10.22 42.41-10.30C42.12-10.30 40.97-9.43 40.97-9.22C40.90-8.42 40.68-7.78 40.46-7.06ZM49.46-2.81C50.11-3.24 50.54-3.74 50.83-4.32C50.98-4.68 51.12-4.97 51.19-5.33C51.34-5.98 50.83-6.62 50.26-6.62C49.68-6.70 49.32-6.26 49.32-5.54C49.39-4.68 49.10-3.82 49.46-2.81ZM40.46-4.75C40.10-5.33 40.10-5.90 40.03-6.48C39.74-5.90 38.59-6.05 38.95-5.04C39.24-4.25 39.82-4.68 40.46-4.75ZM90.79 0L144.72 0L147.10-18.29C147.31-19.87 145.15-20.45 144.58-18.43C142.63-11.16 136.08-2.02 122.04-2.02L117.14-2.02L117.14-49.75C117.14-52.99 119.88-55.51 123.05-55.51L124.85-55.51C125.42-55.51 125.86-56.02 125.86-56.52C125.86-57.10 125.42-57.60 124.85-57.60L90.79-57.60C90.22-57.60 89.78-57.10 89.78-56.52C89.78-56.02 90.22-55.51 90.79-55.51L92.66-55.51C95.83-55.51 98.42-52.92 98.42-49.75L98.42-7.78C98.42-4.61 95.83-2.02 92.66-2.02L90.79-2.02C90.22-2.02 89.78-1.58 89.78-1.01C89.78-0.43 90.22 0 90.79 0ZM100.44-51.26C100.15-52.78 99.43-54.14 98.42-55.22C98.42-55.30 98.35-55.37 98.35-55.44L98.86-55.44C99.14-54.65 99.50-53.93 99.72-53.71C99.86-53.50 100.08-53.21 100.37-53.42C100.58-53.64 100.80-53.86 100.73-54.22C100.66-54.43 100.51-54.58 100.44-54.72C100.30-54.94 100.22-55.22 100.08-55.44L100.66-55.44C100.80-55.15 100.94-54.86 101.16-54.58L102.38-55.44L103.75-55.44C103.18-55.30 102.67-55.01 102.17-54.58C101.38-53.93 100.94-53.06 100.66-52.06ZM107.86-55.01C107.42-54.86 107.21-55.08 106.92-55.15C106.56-55.30 106.20-55.37 105.84-55.44L107.78-55.44C107.78-55.30 107.86-55.15 107.86-55.01ZM99.00-2.16C99.07-2.45 99.00-2.66 98.86-2.81L99.43-3.60C99.58-3.67 99.65-3.82 99.72-4.03C99.79-4.10 99.79-4.18 99.72-4.18C99.86-4.46 100.01-4.68 100.08-4.90C100.51-4.75 101.02-4.68 101.52-4.68C102.17-4.68 102.74-4.75 103.32-4.90C105.19-5.33 106.27-6.84 107.57-8.06C108.07-8.50 107.64-9.00 107.42-9.43C107.14-9.94 106.78-9.58 106.49-9.43C105.48-8.86 104.33-8.42 103.18-8.35C102.17-8.28 101.23-8.57 100.58-9.22L100.58-12.74C101.16-13.10 101.59-12.82 102.10-12.53C102.17-12.46 102.24-12.38 102.31-12.38C102.89-12.10 103.39-12.46 103.32-13.10C103.25-13.75 102.96-14.18 102.46-14.62C101.88-15.12 101.23-15.34 100.58-15.26L100.58-15.98C101.52-15.70 102.46-15.41 103.32-14.90C103.61-15.62 103.97-16.20 104.62-16.70C104.69-16.78 104.76-16.92 104.83-17.06C105.48-18.65 104.90-21.24 103.61-22.32C102.82-23.04 101.59-23.18 100.58-22.97L100.58-23.62C100.80-23.69 101.02-23.69 101.16-23.69C101.66-23.76 101.81-23.98 101.74-24.41C101.74-24.91 101.45-25.85 101.16-26.28C101.02-26.50 100.80-26.71 100.58-26.86L100.58-28.73C100.73-29.52 100.80-30.31 101.23-30.96C101.45-31.32 101.23-31.46 100.87-31.54L100.58-31.54L100.58-32.11C100.94-32.04 101.30-31.97 101.66-31.97C102.24-32.04 102.53-32.47 102.38-33.05C102.24-33.98 102.17-34.92 102.60-35.78C102.89-36.50 102.67-37.08 102.24-37.58C101.74-38.16 101.16-38.66 100.58-39.10L100.58-40.90C101.52-39.82 103.03-39.24 104.40-39.67C104.54-39.74 104.69-39.82 104.76-39.53C103.97-38.59 102.82-39.17 101.81-39.02C101.88-38.30 102.53-38.02 102.89-37.51C103.10-37.15 103.32-37.22 103.61-37.51C104.11-37.94 104.54-38.45 105.19-38.74C105.98-39.02 106.56-39.46 106.99-40.18C107.06-40.25 107.14-40.25 107.28-40.25C107.57-39.96 107.14-39.67 107.28-39.24C108.72-39.24 109.94-38.74 110.95-37.80C111.02-37.66 111.17-37.58 111.24-37.44C111.46-37.30 111.67-37.37 111.82-37.51C111.89-37.66 111.89-37.80 111.74-37.94C111.67-38.02 111.60-38.09 111.53-38.23C110.16-39.74 109.51-41.47 110.45-43.49C110.45-43.49 110.38-43.63 110.38-43.78C109.08-43.70 107.86-43.78 106.56-43.92C106.49-43.49 106.49-43.13 106.42-42.77C106.13-41.83 104.98-40.90 103.90-40.75C103.10-40.61 102.24-41.18 101.74-42.12C101.52-42.55 101.52-43.06 101.52-43.56C101.52-43.99 101.59-44.35 101.45-44.71C101.30-45.07 101.09-45.29 100.73-45.29L100.58-45.29L100.58-46.01C100.87-45.94 101.16-45.86 101.38-45.65C102.02-45.14 102.38-44.50 102.10-43.70C101.95-43.06 102.10-42.48 102.53-41.90C102.82-41.47 103.25-41.18 103.82-41.26C104.62-41.47 105.34-41.90 105.70-42.70C106.13-43.49 105.84-44.14 104.98-44.50C103.25-45.29 101.52-46.22 100.58-48.02L100.58-49.32L101.02-48.31C102.10-46.58 103.82-45.58 105.62-44.93C107.64-44.21 109.66-44.35 111.67-44.50C112.54-44.57 113.40-44.64 114.19-45.07C114.48-45.29 114.70-45.36 114.62-45.79C114.55-46.01 114.48-46.37 114.77-46.37C114.84-46.44 114.91-46.44 114.98-46.44L114.98-44.78C114.84-44.78 114.62-44.71 114.48-44.57C113.98-44.14 113.33-44.14 112.68-43.99C111.02-43.70 110.23-42.41 110.81-40.68C111.10-39.89 111.53-39.24 112.10-38.66C112.90-37.80 112.90-37.80 113.98-38.23C113.54-38.74 113.11-39.24 112.75-39.74C112.10-40.75 112.03-41.90 112.82-42.70C113.40-43.27 114.19-43.56 114.98-43.42L114.98-37.15C114.84-37.15 114.70-37.22 114.55-37.22C112.90-37.51 111.60-36.86 110.52-35.57C109.73-34.70 109.73-33.70 109.94-32.62C110.09-31.68 110.95-31.18 111.24-30.38C111.31-30.31 111.46-30.31 111.60-30.31C112.32-30.24 112.75-29.74 113.18-29.16C113.33-28.94 113.40-28.73 113.62-28.51C113.76-28.30 113.98-28.37 114.12-28.44C114.26-28.51 114.34-28.66 114.26-28.87C113.90-29.66 114.05-30.60 113.98-31.46C113.83-31.46 113.76-31.54 113.69-31.54C112.03-31.25 110.88-32.69 111.46-34.27C111.96-35.71 113.69-36.29 114.98-35.50L114.98-35.06C114.55-35.35 114.05-35.50 113.47-35.42C112.68-35.35 112.10-34.92 111.89-34.13C111.60-33.34 111.82-32.62 112.46-31.97C112.82-31.54 113.54-31.68 113.98-32.11C114.41-32.62 114.48-33.12 114.05-33.55C113.83-33.84 113.54-33.91 113.40-33.48C113.40-33.34 113.62-33.05 113.26-33.12C113.04-33.12 112.97-33.41 112.97-33.55C113.04-34.06 113.62-34.34 114.05-34.06C114.34-33.84 114.55-33.62 114.91-33.26L114.98-33.41L114.98-32.26C114.84-31.90 114.70-31.54 114.62-31.18C114.41-30.31 114.48-29.66 114.98-28.94L114.98-27.79L114.84-27.79C114.48-27.79 114.19-27.72 113.90-27.65C113.33-27.50 112.97-27.58 112.82-28.22C112.68-28.51 112.46-28.80 112.25-29.09C111.82-29.66 111.38-29.59 111.17-28.87C110.95-28.44 110.88-28.01 110.81-27.58C110.66-26.86 110.30-26.50 109.66-26.42L108.94-26.21C107.28-25.63 107.28-25.63 107.57-23.98C107.64-23.62 107.78-23.54 108.14-23.47C109.30-23.33 109.30-23.26 109.15-22.18C109.01-21.46 109.01-20.74 109.73-20.16L111.10-21.60C111.31-21.82 111.53-22.10 111.67-22.03C112.54-21.89 112.75-22.61 113.04-23.18C113.33-23.76 113.69-24.34 114.19-24.62C114.55-24.84 114.84-25.13 114.98-25.42L114.98-23.98C114.84-23.98 114.70-23.90 114.55-23.83C114.70-23.83 114.84-23.83 114.98-23.76L114.98-23.47C114.84-23.40 114.62-23.26 114.34-22.90C114.26-22.90 114.19-22.90 114.12-22.82C113.40-22.61 113.40-22.61 113.33-21.24C113.26-20.74 113.83-21.10 113.90-20.81C113.69-20.59 113.18-20.95 113.11-20.30L114.98-20.30L114.98-19.44C114.26-19.44 113.62-19.30 113.04-19.01C111.38-18.22 110.38-16.78 110.09-14.98C109.51-12.10 110.52-9.50 112.90-7.70C113.54-7.20 114.26-6.77 114.98-6.26L114.98-4.54C114.48-4.61 113.98-4.75 113.47-4.82C112.61-4.97 112.46-4.90 112.10-4.25C111.74-3.60 111.89-3.17 112.32-2.88C112.75-2.66 113.62-2.88 113.90-3.31C113.98-3.46 113.98-3.60 113.90-3.74C113.76-3.89 113.69-3.89 113.47-3.74C113.40-3.67 113.26-3.53 113.11-3.74C113.04-3.89 113.11-4.10 113.33-4.25C113.69-4.46 114.05-4.25 114.26-3.67C114.34-3.38 114.12-2.95 114.55-2.88C114.84-2.81 114.91-2.66 114.98-2.52L114.98-2.16L113.62-2.16C113.69-2.23 113.69-2.38 113.69-2.52C113.62-2.52 113.62-2.59 113.54-2.59C112.82-2.38 112.18-2.23 111.67-2.95C111.24-3.60 111.67-4.18 111.96-4.68C112.10-4.97 112.39-5.18 111.96-5.47C111.53-5.69 111.31-5.47 111.10-5.18C110.59-4.32 110.59-3.10 111.10-2.16L110.38-2.16C110.38-2.23 110.30-2.30 110.30-2.38C109.94-3.46 109.37-3.82 108.29-3.67C106.99-3.53 105.91-3.02 105.19-2.16L104.47-2.16C104.90-2.81 105.48-3.46 106.34-3.82C105.70-4.82 105.41-4.90 104.47-4.61C103.46-4.25 102.46-3.96 101.38-4.03C100.94-4.03 100.58-3.89 100.22-3.53C99.94-3.17 99.72-2.66 99.58-2.16ZM109.30-32.69L109.30-33.70C109.30-34.70 109.51-35.57 110.23-36.29C110.66-36.65 110.66-36.94 110.30-37.37C109.73-37.94 109.01-38.38 108.14-38.45C107.35-38.52 106.49-38.45 105.70-38.16C103.82-37.44 102.46-35.50 102.89-33.48C102.96-33.26 102.96-33.05 103.18-32.98C103.54-32.76 104.54-33.26 104.62-33.77C104.62-34.42 104.54-34.99 104.83-35.57C105.19-36.29 106.34-37.01 106.99-37.01C107.86-36.94 108.22-36.29 108.50-35.64C108.65-35.06 108.65-34.56 108.36-34.06C108.22-33.70 107.93-33.48 107.93-33.05C108.36-32.98 108.72-32.69 109.30-32.69ZM105.34-33.41C105.62-33.41 105.91-33.41 105.98-33.77C105.98-34.06 105.98-34.34 106.06-34.63C106.20-35.35 106.49-35.42 107.42-34.78C106.92-34.78 106.56-35.06 106.34-34.56C106.20-34.13 106.27-33.77 106.63-33.48C106.99-33.26 107.35-33.34 107.71-33.62C108.43-34.34 108.36-35.71 107.57-36.36C107.28-36.58 106.99-36.58 106.63-36.58C105.55-36.36 104.54-34.85 104.83-33.77C104.90-33.55 105.05-33.41 105.34-33.41ZM102.46-26.57C103.46-27.00 103.90-27.58 103.68-28.80C103.54-29.81 104.26-30.60 105.12-31.03C106.06-31.39 107.06-31.54 107.93-30.96C109.37-29.95 109.66-28.58 108.65-26.78C109.30-27.00 109.87-27.00 110.02-27.50C110.30-28.37 110.59-29.23 110.59-30.10C110.59-30.24 110.52-30.31 110.45-30.38C108.86-32.40 106.42-33.12 104.04-32.40C102.31-31.90 101.02-30.10 101.09-28.30C101.16-27.72 101.30-27.14 101.66-26.64C101.88-26.35 102.10-26.35 102.46-26.57ZM106.34-27.00C106.20-27.65 105.84-28.22 106.34-28.80C106.63-29.16 106.92-29.30 107.21-28.94C107.57-28.66 107.14-28.51 106.99-28.37C106.56-28.08 106.63-27.72 106.85-27.36C107.14-26.93 107.50-27.07 107.86-27.22C108.29-27.43 108.65-27.72 108.65-28.30C108.72-29.23 108.00-30.38 107.21-30.60C106.13-30.89 104.83-30.38 104.40-29.45C103.82-28.30 104.33-27.29 105.55-27.07C105.77-27.00 105.98-26.78 106.34-27.00ZM105.77-21.67C106.13-21.89 106.49-22.18 106.70-22.54C107.14-23.62 107.06-24.70 106.34-25.63C105.62-26.57 104.62-26.71 103.61-26.50C102.74-26.35 102.38-25.78 102.38-24.84L102.38-24.05C102.38-23.76 102.46-23.62 102.74-23.54C103.03-23.47 103.25-23.54 103.25-23.83C103.32-24.26 103.61-24.55 103.82-25.06C104.04-24.26 103.39-23.83 103.61-23.40C103.90-22.97 104.33-22.68 104.69-22.32C104.83-22.18 104.98-21.96 105.05-21.82C105.26-21.53 105.48-21.53 105.77-21.67ZM102.67-15.91C102.02-16.06 101.23-16.63 100.58-17.42L100.58-21.53L100.66-21.53C101.38-21.89 102.10-21.82 102.67-21.24C103.32-20.66 103.75-19.94 103.61-19.08C103.46-18.29 103.39-17.42 103.46-16.63C103.46-16.06 103.10-15.84 102.67-15.91ZM108.14-17.35C108.79-17.06 109.30-17.42 109.37-18.14C109.37-19.08 109.01-19.87 108.50-20.52C107.93-21.31 107.06-21.53 106.20-21.17C105.91-21.02 105.48-20.95 105.62-20.45C105.77-20.09 105.70-19.51 106.34-19.51C106.56-19.51 106.78-19.58 106.99-19.44C105.77-19.15 105.70-19.08 105.70-17.93C105.77-17.50 105.84-17.42 106.27-17.42C106.85-17.42 107.50-17.64 108.14-17.35ZM110.09-18.72C110.23-18.58 110.38-18.65 110.52-18.72C111.02-19.01 111.46-19.30 111.96-19.51C112.46-19.66 112.68-19.94 112.54-20.45L112.32-21.38C111.10-21.02 110.66-20.09 110.09-19.15C110.02-19.08 110.02-18.86 110.09-18.72ZM114.55-21.24C114.77-21.31 114.91-21.31 114.98-21.31L114.98-21.24ZM105.84-12.02C106.20-11.95 106.49-11.95 106.56-12.53C106.78-13.82 107.21-15.05 108.00-16.20C108.36-16.63 108.00-16.85 107.64-16.92C106.92-16.99 106.20-16.78 105.55-16.56C104.54-16.13 104.11-15.34 104.04-14.18C103.90-13.25 104.98-12.24 105.84-12.02ZM105.41-9.58C105.91-9.58 106.34-9.79 106.70-10.15C107.06-10.51 106.85-11.23 106.42-11.30C105.55-11.38 104.83-11.66 104.18-12.17C103.82-12.53 103.54-12.02 103.25-11.88C103.03-11.74 102.89-11.59 102.96-11.30C103.18-10.58 104.54-9.58 105.41-9.58ZM133.49-2.16C133.56-2.16 133.63-2.23 133.78-2.23C134.50-2.30 135.29-2.59 136.08-2.81C136.51-2.88 136.30-3.17 136.15-3.38C136.15-3.46 136.08-3.46 136.08-3.53C136.30-3.60 136.51-3.74 136.66-3.89C136.94-3.46 137.30-3.17 137.74-3.02C138.24-2.88 138.82-2.59 138.96-3.46C139.82-3.96 139.18-4.54 139.10-5.11C139.03-5.26 139.03-5.47 138.96-5.54C139.03-5.69 139.18-5.76 139.32-5.90C139.82-6.34 140.33-6.84 140.83-7.34C141.26-7.13 141.55-7.34 141.70-7.85C141.70-7.99 141.77-8.06 141.77-8.21C141.84-8.28 141.77-8.42 142.06-8.35C141.48-7.27 142.20-6.62 142.85-5.76C142.92-6.19 143.06-6.48 143.06-6.77C143.28-7.99 143.50-9.22 143.28-10.44C143.42-10.66 143.64-10.94 143.78-11.23C143.86-11.02 143.93-10.80 143.93-10.58L143.21-5.18C142.70-4.68 142.42-3.89 142.34-2.95C142.56-3.10 142.78-3.31 143.06-3.53L142.92-2.81C142.78-2.66 142.70-2.52 142.56-2.30L142.42-2.16L141.41-2.16C141.41-2.59 141.48-3.02 141.62-3.46C141.62-3.82 141.55-3.96 141.12-3.96C140.33-4.03 139.54-3.24 139.25-2.30L139.25-2.16L138.46-2.16C138.38-2.23 138.38-2.23 138.24-2.23C137.88-2.16 137.52-2.45 137.16-2.45C136.80-2.45 136.51-2.30 136.22-2.16ZM108.65-8.64C108.86-9.07 109.08-8.21 109.37-8.64C109.80-9.36 109.87-10.01 109.58-10.80C109.08-10.30 109.08-9.58 108.50-9.22C108.29-9.07 108.50-8.78 108.65-8.64ZM110.02-4.10C110.45-4.32 110.23-4.97 110.52-5.33C110.52-5.40 110.59-5.47 110.59-5.54C110.88-5.90 110.74-6.12 110.38-6.26C109.51-6.55 108.94-7.13 108.22-7.70L106.20-5.98C105.77-5.62 105.84-5.40 106.27-4.97C106.92-4.32 107.50-3.89 108.43-4.25C108.50-4.32 108.65-4.25 108.79-4.25C109.22-4.32 109.66-3.89 110.02-4.10ZM140.18-4.46C140.54-4.54 140.69-4.68 140.69-5.04C140.69-5.33 140.47-5.54 140.69-5.90C141.12-5.40 140.83-4.32 141.91-4.54C142.13-4.82 142.06-5.11 142.06-5.40C141.91-6.26 141.34-6.77 140.62-6.62C139.90-6.48 139.46-5.69 139.68-4.97C139.75-4.68 139.82-4.46 140.18-4.46ZM151.70 0L205.63 0L208.01-18.29C208.22-19.87 206.06-20.45 205.49-18.43C203.54-11.16 196.99-2.02 182.95-2.02L178.06-2.02L178.06-49.75C178.06-52.99 180.79-55.51 183.96-55.51L185.76-55.51C186.34-55.51 186.77-56.02 186.77-56.52C186.77-57.10 186.34-57.60 185.76-57.60L151.70-57.60C151.13-57.60 150.70-57.10 150.70-56.52C150.70-56.02 151.13-55.51 151.70-55.51L153.58-55.51C156.74-55.51 159.34-52.92 159.34-49.75L159.34-7.78C159.34-4.61 156.74-2.02 153.58-2.02L151.70-2.02C151.13-2.02 150.70-1.58 150.70-1.01C150.70-0.43 151.13 0 151.70 0ZM161.35-51.26C161.06-52.78 160.34-54.14 159.34-55.22C159.34-55.30 159.26-55.37 159.26-55.44L159.77-55.44C160.06-54.65 160.42-53.93 160.63-53.71C160.78-53.50 160.99-53.21 161.28-53.42C161.50-53.64 161.71-53.86 161.64-54.22C161.57-54.43 161.42-54.58 161.35-54.72C161.21-54.94 161.14-55.22 160.99-55.44L161.57-55.44C161.71-55.15 161.86-54.86 162.07-54.58L163.30-55.44L164.66-55.44C164.09-55.30 163.58-55.01 163.08-54.58C162.29-53.93 161.86-53.06 161.57-52.06ZM168.77-55.01C168.34-54.86 168.12-55.08 167.83-55.15C167.47-55.30 167.11-55.37 166.75-55.44L168.70-55.44C168.70-55.30 168.77-55.15 168.77-55.01ZM159.91-2.16C159.98-2.45 159.91-2.66 159.77-2.81L160.34-3.60C160.49-3.67 160.56-3.82 160.63-4.03C160.70-4.10 160.70-4.18 160.63-4.18C160.78-4.46 160.92-4.68 160.99-4.90C161.42-4.75 161.93-4.68 162.43-4.68C163.08-4.68 163.66-4.75 164.23-4.90C166.10-5.33 167.18-6.84 168.48-8.06C168.98-8.50 168.55-9.00 168.34-9.43C168.05-9.94 167.69-9.58 167.40-9.43C166.39-8.86 165.24-8.42 164.09-8.35C163.08-8.28 162.14-8.57 161.50-9.22L161.50-12.74C162.07-13.10 162.50-12.82 163.01-12.53C163.08-12.46 163.15-12.38 163.22-12.38C163.80-12.10 164.30-12.46 164.23-13.10C164.16-13.75 163.87-14.18 163.37-14.62C162.79-15.12 162.14-15.34 161.50-15.26L161.50-15.98C162.43-15.70 163.37-15.41 164.23-14.90C164.52-15.62 164.88-16.20 165.53-16.70C165.60-16.78 165.67-16.92 165.74-17.06C166.39-18.65 165.82-21.24 164.52-22.32C163.73-23.04 162.50-23.18 161.50-22.97L161.50-23.62C161.71-23.69 161.93-23.69 162.07-23.69C162.58-23.76 162.72-23.98 162.65-24.41C162.65-24.91 162.36-25.85 162.07-26.28C161.93-26.50 161.71-26.71 161.50-26.86L161.50-28.73C161.64-29.52 161.71-30.31 162.14-30.96C162.36-31.32 162.14-31.46 161.78-31.54L161.50-31.54L161.50-32.11C161.86-32.04 162.22-31.97 162.58-31.97C163.15-32.04 163.44-32.47 163.30-33.05C163.15-33.98 163.08-34.92 163.51-35.78C163.80-36.50 163.58-37.08 163.15-37.58C162.65-38.16 162.07-38.66 161.50-39.10L161.50-40.90C162.43-39.82 163.94-39.24 165.31-39.67C165.46-39.74 165.60-39.82 165.67-39.53C164.88-38.59 163.73-39.17 162.72-39.02C162.79-38.30 163.44-38.02 163.80-37.51C164.02-37.15 164.23-37.22 164.52-37.51C165.02-37.94 165.46-38.45 166.10-38.74C166.90-39.02 167.47-39.46 167.90-40.18C167.98-40.25 168.05-40.25 168.19-40.25C168.48-39.96 168.05-39.67 168.19-39.24C169.63-39.24 170.86-38.74 171.86-37.80C171.94-37.66 172.08-37.58 172.15-37.44C172.37-37.30 172.58-37.37 172.73-37.51C172.80-37.66 172.80-37.80 172.66-37.94C172.58-38.02 172.51-38.09 172.44-38.23C171.07-39.74 170.42-41.47 171.36-43.49C171.36-43.49 171.29-43.63 171.29-43.78C169.99-43.70 168.77-43.78 167.47-43.92C167.40-43.49 167.40-43.13 167.33-42.77C167.04-41.83 165.89-40.90 164.81-40.75C164.02-40.61 163.15-41.18 162.65-42.12C162.43-42.55 162.43-43.06 162.43-43.56C162.43-43.99 162.50-44.35 162.36-44.71C162.22-45.07 162.00-45.29 161.64-45.29L161.50-45.29L161.50-46.01C161.78-45.94 162.07-45.86 162.29-45.65C162.94-45.14 163.30-44.50 163.01-43.70C162.86-43.06 163.01-42.48 163.44-41.90C163.73-41.47 164.16-41.18 164.74-41.26C165.53-41.47 166.25-41.90 166.61-42.70C167.04-43.49 166.75-44.14 165.89-44.50C164.16-45.29 162.43-46.22 161.50-48.02L161.50-49.32L161.93-48.31C163.01-46.58 164.74-45.58 166.54-44.93C168.55-44.21 170.57-44.35 172.58-44.50C173.45-44.57 174.31-44.64 175.10-45.07C175.39-45.29 175.61-45.36 175.54-45.79C175.46-46.01 175.39-46.37 175.68-46.37C175.75-46.44 175.82-46.44 175.90-46.44L175.90-44.78C175.75-44.78 175.54-44.71 175.39-44.57C174.89-44.14 174.24-44.14 173.59-43.99C171.94-43.70 171.14-42.41 171.72-40.68C172.01-39.89 172.44-39.24 173.02-38.66C173.81-37.80 173.81-37.80 174.89-38.23C174.46-38.74 174.02-39.24 173.66-39.74C173.02-40.75 172.94-41.90 173.74-42.70C174.31-43.27 175.10-43.56 175.90-43.42L175.90-37.15C175.75-37.15 175.61-37.22 175.46-37.22C173.81-37.51 172.51-36.86 171.43-35.57C170.64-34.70 170.64-33.70 170.86-32.62C171.00-31.68 171.86-31.18 172.15-30.38C172.22-30.31 172.37-30.31 172.51-30.31C173.23-30.24 173.66-29.74 174.10-29.16C174.24-28.94 174.31-28.73 174.53-28.51C174.67-28.30 174.89-28.37 175.03-28.44C175.18-28.51 175.25-28.66 175.18-28.87C174.82-29.66 174.96-30.60 174.89-31.46C174.74-31.46 174.67-31.54 174.60-31.54C172.94-31.25 171.79-32.69 172.37-34.27C172.87-35.71 174.60-36.29 175.90-35.50L175.90-35.06C175.46-35.35 174.96-35.50 174.38-35.42C173.59-35.35 173.02-34.92 172.80-34.13C172.51-33.34 172.73-32.62 173.38-31.97C173.74-31.54 174.46-31.68 174.89-32.11C175.32-32.62 175.39-33.12 174.96-33.55C174.74-33.84 174.46-33.91 174.31-33.48C174.31-33.34 174.53-33.05 174.17-33.12C173.95-33.12 173.88-33.41 173.88-33.55C173.95-34.06 174.53-34.34 174.96-34.06C175.25-33.84 175.46-33.62 175.82-33.26L175.90-33.41L175.90-32.26C175.75-31.90 175.61-31.54 175.54-31.18C175.32-30.31 175.39-29.66 175.90-28.94L175.90-27.79L175.75-27.79C175.39-27.79 175.10-27.72 174.82-27.65C174.24-27.50 173.88-27.58 173.74-28.22C173.59-28.51 173.38-28.80 173.16-29.09C172.73-29.66 172.30-29.59 172.08-28.87C171.86-28.44 171.79-28.01 171.72-27.58C171.58-26.86 171.22-26.50 170.57-26.42L169.85-26.21C168.19-25.63 168.19-25.63 168.48-23.98C168.55-23.62 168.70-23.54 169.06-23.47C170.21-23.33 170.21-23.26 170.06-22.18C169.92-21.46 169.92-20.74 170.64-20.16L172.01-21.60C172.22-21.82 172.44-22.10 172.58-22.03C173.45-21.89 173.66-22.61 173.95-23.18C174.24-23.76 174.60-24.34 175.10-24.62C175.46-24.84 175.75-25.13 175.90-25.42L175.90-23.98C175.75-23.98 175.61-23.90 175.46-23.83C175.61-23.83 175.75-23.83 175.90-23.76L175.90-23.47C175.75-23.40 175.54-23.26 175.25-22.90C175.18-22.90 175.10-22.90 175.03-22.82C174.31-22.61 174.31-22.61 174.24-21.24C174.17-20.74 174.74-21.10 174.82-20.81C174.60-20.59 174.10-20.95 174.02-20.30L175.90-20.30L175.90-19.44C175.18-19.44 174.53-19.30 173.95-19.01C172.30-18.22 171.29-16.78 171.00-14.98C170.42-12.10 171.43-9.50 173.81-7.70C174.46-7.20 175.18-6.77 175.90-6.26L175.90-4.54C175.39-4.61 174.89-4.75 174.38-4.82C173.52-4.97 173.38-4.90 173.02-4.25C172.66-3.60 172.80-3.17 173.23-2.88C173.66-2.66 174.53-2.88 174.82-3.31C174.89-3.46 174.89-3.60 174.82-3.74C174.67-3.89 174.60-3.89 174.38-3.74C174.31-3.67 174.17-3.53 174.02-3.74C173.95-3.89 174.02-4.10 174.24-4.25C174.60-4.46 174.96-4.25 175.18-3.67C175.25-3.38 175.03-2.95 175.46-2.88C175.75-2.81 175.82-2.66 175.90-2.52L175.90-2.16L174.53-2.16C174.60-2.23 174.60-2.38 174.60-2.52C174.53-2.52 174.53-2.59 174.46-2.59C173.74-2.38 173.09-2.23 172.58-2.95C172.15-3.60 172.58-4.18 172.87-4.68C173.02-4.97 173.30-5.18 172.87-5.47C172.44-5.69 172.22-5.47 172.01-5.18C171.50-4.32 171.50-3.10 172.01-2.16L171.29-2.16C171.29-2.23 171.22-2.30 171.22-2.38C170.86-3.46 170.28-3.82 169.20-3.67C167.90-3.53 166.82-3.02 166.10-2.16L165.38-2.16C165.82-2.81 166.39-3.46 167.26-3.82C166.61-4.82 166.32-4.90 165.38-4.61C164.38-4.25 163.37-3.96 162.29-4.03C161.86-4.03 161.50-3.89 161.14-3.53C160.85-3.17 160.63-2.66 160.49-2.16ZM170.21-32.69L170.21-33.70C170.21-34.70 170.42-35.57 171.14-36.29C171.58-36.65 171.58-36.94 171.22-37.37C170.64-37.94 169.92-38.38 169.06-38.45C168.26-38.52 167.40-38.45 166.61-38.16C164.74-37.44 163.37-35.50 163.80-33.48C163.87-33.26 163.87-33.05 164.09-32.98C164.45-32.76 165.46-33.26 165.53-33.77C165.53-34.42 165.46-34.99 165.74-35.57C166.10-36.29 167.26-37.01 167.90-37.01C168.77-36.94 169.13-36.29 169.42-35.64C169.56-35.06 169.56-34.56 169.27-34.06C169.13-33.70 168.84-33.48 168.84-33.05C169.27-32.98 169.63-32.69 170.21-32.69ZM166.25-33.41C166.54-33.41 166.82-33.41 166.90-33.77C166.90-34.06 166.90-34.34 166.97-34.63C167.11-35.35 167.40-35.42 168.34-34.78C167.83-34.78 167.47-35.06 167.26-34.56C167.11-34.13 167.18-33.77 167.54-33.48C167.90-33.26 168.26-33.34 168.62-33.62C169.34-34.34 169.27-35.71 168.48-36.36C168.19-36.58 167.90-36.58 167.54-36.58C166.46-36.36 165.46-34.85 165.74-33.77C165.82-33.55 165.96-33.41 166.25-33.41ZM163.37-26.57C164.38-27.00 164.81-27.58 164.59-28.80C164.45-29.81 165.17-30.60 166.03-31.03C166.97-31.39 167.98-31.54 168.84-30.96C170.28-29.95 170.57-28.58 169.56-26.78C170.21-27.00 170.78-27.00 170.93-27.50C171.22-28.37 171.50-29.23 171.50-30.10C171.50-30.24 171.43-30.31 171.36-30.38C169.78-32.40 167.33-33.12 164.95-32.40C163.22-31.90 161.93-30.10 162.00-28.30C162.07-27.72 162.22-27.14 162.58-26.64C162.79-26.35 163.01-26.35 163.37-26.57ZM167.26-27.00C167.11-27.65 166.75-28.22 167.26-28.80C167.54-29.16 167.83-29.30 168.12-28.94C168.48-28.66 168.05-28.51 167.90-28.37C167.47-28.08 167.54-27.72 167.76-27.36C168.05-26.93 168.41-27.07 168.77-27.22C169.20-27.43 169.56-27.72 169.56-28.30C169.63-29.23 168.91-30.38 168.12-30.60C167.04-30.89 165.74-30.38 165.31-29.45C164.74-28.30 165.24-27.29 166.46-27.07C166.68-27.00 166.90-26.78 167.26-27.00ZM166.68-21.67C167.04-21.89 167.40-22.18 167.62-22.54C168.05-23.62 167.98-24.70 167.26-25.63C166.54-26.57 165.53-26.71 164.52-26.50C163.66-26.35 163.30-25.78 163.30-24.84L163.30-24.05C163.30-23.76 163.37-23.62 163.66-23.54C163.94-23.47 164.16-23.54 164.16-23.83C164.23-24.26 164.52-24.55 164.74-25.06C164.95-24.26 164.30-23.83 164.52-23.40C164.81-22.97 165.24-22.68 165.60-22.32C165.74-22.18 165.89-21.96 165.96-21.82C166.18-21.53 166.39-21.53 166.68-21.67ZM163.58-15.91C162.94-16.06 162.14-16.63 161.50-17.42L161.50-21.53L161.57-21.53C162.29-21.89 163.01-21.82 163.58-21.24C164.23-20.66 164.66-19.94 164.52-19.08C164.38-18.29 164.30-17.42 164.38-16.63C164.38-16.06 164.02-15.84 163.58-15.91ZM169.06-17.35C169.70-17.06 170.21-17.42 170.28-18.14C170.28-19.08 169.92-19.87 169.42-20.52C168.84-21.31 167.98-21.53 167.11-21.17C166.82-21.02 166.39-20.95 166.54-20.45C166.68-20.09 166.61-19.51 167.26-19.51C167.47-19.51 167.69-19.58 167.90-19.44C166.68-19.15 166.61-19.08 166.61-17.93C166.68-17.50 166.75-17.42 167.18-17.42C167.76-17.42 168.41-17.64 169.06-17.35ZM171.00-18.72C171.14-18.58 171.29-18.65 171.43-18.72C171.94-19.01 172.37-19.30 172.87-19.51C173.38-19.66 173.59-19.94 173.45-20.45L173.23-21.38C172.01-21.02 171.58-20.09 171.00-19.15C170.93-19.08 170.93-18.86 171.00-18.72ZM175.46-21.24C175.68-21.31 175.82-21.31 175.90-21.31L175.90-21.24ZM166.75-12.02C167.11-11.95 167.40-11.95 167.47-12.53C167.69-13.82 168.12-15.05 168.91-16.20C169.27-16.63 168.91-16.85 168.55-16.92C167.83-16.99 167.11-16.78 166.46-16.56C165.46-16.13 165.02-15.34 164.95-14.18C164.81-13.25 165.89-12.24 166.75-12.02ZM166.32-9.58C166.82-9.58 167.26-9.79 167.62-10.15C167.98-10.51 167.76-11.23 167.33-11.30C166.46-11.38 165.74-11.66 165.10-12.17C164.74-12.53 164.45-12.02 164.16-11.88C163.94-11.74 163.80-11.59 163.87-11.30C164.09-10.58 165.46-9.58 166.32-9.58ZM194.40-2.16C194.47-2.16 194.54-2.23 194.69-2.23C195.41-2.30 196.20-2.59 196.99-2.81C197.42-2.88 197.21-3.17 197.06-3.38C197.06-3.46 196.99-3.46 196.99-3.53C197.21-3.60 197.42-3.74 197.57-3.89C197.86-3.46 198.22-3.17 198.65-3.02C199.15-2.88 199.73-2.59 199.87-3.46C200.74-3.96 200.09-4.54 200.02-5.11C199.94-5.26 199.94-5.47 199.87-5.54C199.94-5.69 200.09-5.76 200.23-5.90C200.74-6.34 201.24-6.84 201.74-7.34C202.18-7.13 202.46-7.34 202.61-7.85C202.61-7.99 202.68-8.06 202.68-8.21C202.75-8.28 202.68-8.42 202.97-8.35C202.39-7.27 203.11-6.62 203.76-5.76C203.83-6.19 203.98-6.48 203.98-6.77C204.19-7.99 204.41-9.22 204.19-10.44C204.34-10.66 204.55-10.94 204.70-11.23C204.77-11.02 204.84-10.80 204.84-10.58L204.12-5.18C203.62-4.68 203.33-3.89 203.26-2.95C203.47-3.10 203.69-3.31 203.98-3.53L203.83-2.81C203.69-2.66 203.62-2.52 203.47-2.30L203.33-2.16L202.32-2.16C202.32-2.59 202.39-3.02 202.54-3.46C202.54-3.82 202.46-3.96 202.03-3.96C201.24-4.03 200.45-3.24 200.16-2.30L200.16-2.16L199.37-2.16C199.30-2.23 199.30-2.23 199.15-2.23C198.79-2.16 198.43-2.45 198.07-2.45C197.71-2.45 197.42-2.30 197.14-2.16ZM169.56-8.64C169.78-9.07 169.99-8.21 170.28-8.64C170.71-9.36 170.78-10.01 170.50-10.80C169.99-10.30 169.99-9.58 169.42-9.22C169.20-9.07 169.42-8.78 169.56-8.64ZM170.93-4.10C171.36-4.32 171.14-4.97 171.43-5.33C171.43-5.40 171.50-5.47 171.50-5.54C171.79-5.90 171.65-6.12 171.29-6.26C170.42-6.55 169.85-7.13 169.13-7.70L167.11-5.98C166.68-5.62 166.75-5.40 167.18-4.97C167.83-4.32 168.41-3.89 169.34-4.25C169.42-4.32 169.56-4.25 169.70-4.25C170.14-4.32 170.57-3.89 170.93-4.10ZM201.10-4.46C201.46-4.54 201.60-4.68 201.60-5.04C201.60-5.33 201.38-5.54 201.60-5.90C202.03-5.40 201.74-4.32 202.82-4.54C203.04-4.82 202.97-5.11 202.97-5.40C202.82-6.26 202.25-6.77 201.53-6.62C200.81-6.48 200.38-5.69 200.59-4.97C200.66-4.68 200.74-4.46 201.10-4.46Z" style="cursor: move;"></path></svg></g>
      </g>
  </svg>